<svg width="20" height="20" viewBox="0 0 20 20" fill="none" xmlns="http://www.w3.org/2000/svg">
<path fill-rule="evenodd" clip-rule="evenodd" d="M9.99861 11.7684L14.4178 16.1876C14.6523 16.4221 14.9703 16.5538 15.3019 16.5538C15.6336 16.5538 15.9516 16.4221 16.1861 16.1876C16.4206 15.9531 16.5523 15.6351 16.5523 15.3034C16.5523 14.9718 16.4206 14.6538 16.1861 14.4193L11.7653 10.0001L16.1853 5.58092C16.3013 5.46481 16.3934 5.32698 16.4562 5.1753C16.519 5.02361 16.5513 4.86105 16.5512 4.69688C16.5512 4.53271 16.5188 4.37016 16.4559 4.21851C16.3931 4.06685 16.301 3.92906 16.1849 3.81301C16.0688 3.69695 15.9309 3.6049 15.7792 3.54212C15.6276 3.47933 15.465 3.44703 15.3008 3.44707C15.1367 3.44711 14.9741 3.47948 14.8224 3.54234C14.6708 3.6052 14.533 3.69731 14.4169 3.81343L9.99861 8.23259L5.57945 3.81343C5.46419 3.69398 5.32631 3.59869 5.17383 3.53311C5.02136 3.46753 4.85735 3.43297 4.69138 3.43145C4.52541 3.42993 4.36079 3.46148 4.20714 3.52426C4.05349 3.58704 3.91389 3.67979 3.79646 3.7971C3.67904 3.91441 3.58616 4.05393 3.52324 4.20752C3.46032 4.36111 3.42861 4.52569 3.42997 4.69167C3.43134 4.85764 3.46574 5.02168 3.53118 5.17422C3.59662 5.32675 3.69178 5.46473 3.81111 5.58009L8.23195 10.0001L3.81195 14.4201C3.69261 14.5355 3.59745 14.6734 3.53201 14.826C3.46658 14.9785 3.43217 15.1425 3.43081 15.3085C3.42944 15.4745 3.46115 15.6391 3.52407 15.7927C3.587 15.9463 3.67988 16.0858 3.7973 16.2031C3.91472 16.3204 4.05433 16.4131 4.20798 16.4759C4.36163 16.5387 4.52624 16.5703 4.69221 16.5687C4.85818 16.5672 5.02219 16.5327 5.17467 16.4671C5.32714 16.4015 5.46503 16.3062 5.58028 16.1868L9.99861 11.7684Z" fill="white"/>
</svg>
