<svg width="21" height="22" viewBox="0 0 21 22" fill="none" xmlns="http://www.w3.org/2000/svg">
<path d="M10.5 8.375C9.80381 8.375 9.13613 8.65156 8.64384 9.14384C8.15156 9.63613 7.875 10.3038 7.875 11C7.875 11.6962 8.15156 12.3639 8.64384 12.8562C9.13613 13.3484 9.80381 13.625 10.5 13.625C11.1962 13.625 11.8639 13.3484 12.3562 12.8562C12.8484 12.3639 13.125 11.6962 13.125 11C13.125 10.3038 12.8484 9.63613 12.3562 9.14384C11.8639 8.65156 11.1962 8.375 10.5 8.375ZM10.5 15.375C9.33968 15.375 8.22688 14.9141 7.40641 14.0936C6.58594 13.2731 6.125 12.1603 6.125 11C6.125 9.83968 6.58594 8.72688 7.40641 7.90641C8.22688 7.08594 9.33968 6.625 10.5 6.625C11.6603 6.625 12.7731 7.08594 13.5936 7.90641C14.4141 8.72688 14.875 9.83968 14.875 11C14.875 12.1603 14.4141 13.2731 13.5936 14.0936C12.7731 14.9141 11.6603 15.375 10.5 15.375ZM10.5 4.4375C6.125 4.4375 2.38875 7.15875 0.875 11C2.38875 14.8412 6.125 17.5625 10.5 17.5625C14.875 17.5625 18.6112 14.8412 20.125 11C18.6112 7.15875 14.875 4.4375 10.5 4.4375Z" fill="#767E95"/>
</svg>
