<svg width="19" height="18" viewBox="0 0 19 18" fill="none" xmlns="http://www.w3.org/2000/svg">
<path fill-rule="evenodd" clip-rule="evenodd" d="M18.14 9.2037C18.14 8.56552 18.0827 7.95188 17.9764 7.36279H9.5V10.8442H14.3436C14.135 11.9692 13.5009 12.9223 12.5477 13.5605V15.8187H15.4564C17.1582 14.2519 18.14 11.9446 18.14 9.2037Z" fill="#4285F4"/>
<path fill-rule="evenodd" clip-rule="evenodd" d="M9.50025 18.0009C11.9302 18.0009 13.9675 17.195 15.4566 15.8205L12.548 13.5623C11.7421 14.1023 10.7112 14.4214 9.50025 14.4214C7.15616 14.4214 5.17206 12.8382 4.46434 10.7109H1.45752V13.0428C2.93843 15.9841 5.98207 18.0009 9.50025 18.0009Z" fill="#34A853"/>
<path fill-rule="evenodd" clip-rule="evenodd" d="M4.46409 10.7088C4.28409 10.1688 4.18182 9.59203 4.18182 8.99885C4.18182 8.40567 4.28409 7.82885 4.46409 7.28885V4.95703H1.45727C0.847727 6.17203 0.5 7.54658 0.5 8.99885C0.5 10.4511 0.847727 11.8257 1.45727 13.0407L4.46409 10.7088Z" fill="#FBBC05"/>
<path fill-rule="evenodd" clip-rule="evenodd" d="M9.50025 3.57955C10.8216 3.57955 12.008 4.03364 12.9407 4.92545L15.5221 2.34409C13.9634 0.891818 11.9262 0 9.50025 0C5.98207 0 2.93843 2.01682 1.45752 4.95818L4.46434 7.29C5.17206 5.16273 7.15616 3.57955 9.50025 3.57955Z" fill="#EA4335"/>
</svg>
