<svg width="36" height="36" viewBox="0 0 36 36" fill="none" xmlns="http://www.w3.org/2000/svg">
<path d="M10.5714 3.14282C9.51056 3.14282 8.49315 3.56425 7.743 4.3144C6.99286 5.06454 6.57143 6.08196 6.57143 7.14282V16.8571H8.85714V7.14282C8.85714 6.68817 9.03775 6.25213 9.35925 5.93064C9.68074 5.60915 10.1168 5.42854 10.5714 5.42854H23.1429C23.5975 5.42854 24.0336 5.60915 24.355 5.93064C24.6765 6.25213 24.8571 6.68817 24.8571 7.14282V29.4285C24.8571 29.8202 24.819 30.2011 24.7429 30.5714H28.2857C29.8012 30.5714 31.2547 29.9694 32.3263 28.8977C33.398 27.8261 34 26.3726 34 24.8571V21.4285H27.1429V7.14282C27.1429 6.08196 26.7214 5.06454 25.9713 4.3144C25.2211 3.56425 24.2037 3.14282 23.1429 3.14282H10.5714ZM19.1429 16.8571C19.92 16.8571 20.6651 17.0125 21.3417 17.296C21.414 17.1222 21.4422 16.9334 21.4239 16.7461C21.4057 16.5589 21.3414 16.379 21.237 16.2225C21.1325 16.0661 20.991 15.9378 20.8251 15.8491C20.6591 15.7605 20.4739 15.7141 20.2857 15.7143H13.4286C13.1255 15.7143 12.8348 15.8347 12.6205 16.049C12.4061 16.2633 12.2857 16.554 12.2857 16.8571H19.1429ZM27.1429 23.7142H31.7143V24.8571C31.7143 25.7664 31.3531 26.6385 30.7101 27.2815C30.0671 27.9245 29.195 28.2857 28.2857 28.2857H27.1429V23.7142ZM12.2857 11.1428C12.2857 10.8397 12.4061 10.549 12.6205 10.3347C12.8348 10.1204 13.1255 9.99996 13.4286 9.99996H20.2857C20.5888 9.99996 20.8795 10.1204 21.0938 10.3347C21.3082 10.549 21.4286 10.8397 21.4286 11.1428C21.4286 11.4459 21.3082 11.7366 21.0938 11.9509C20.8795 12.1653 20.5888 12.2857 20.2857 12.2857H13.4286C13.1255 12.2857 12.8348 12.1653 12.6205 11.9509C12.4061 11.7366 12.2857 11.4459 12.2857 11.1428ZM22.5714 22.5714C22.5714 21.6621 22.2102 20.79 21.5672 20.147C20.9242 19.504 20.0522 19.1428 19.1429 19.1428H5.42857C4.51926 19.1428 3.64719 19.504 3.00421 20.147C2.36122 20.79 2 21.6621 2 22.5714V29.4285C2 30.3378 2.36122 31.2099 3.00421 31.8529C3.64719 32.4959 4.51926 32.8571 5.42857 32.8571H19.1429C20.0522 32.8571 20.9242 32.4959 21.5672 31.8529C22.2102 31.2099 22.5714 30.3378 22.5714 29.4285V22.5714ZM20.2857 27.1428V29.4285C19.9826 29.4285 19.6919 29.5489 19.4776 29.7633C19.2633 29.9776 19.1429 30.2683 19.1429 30.5714H16.8571C16.8571 29.6621 17.2184 28.79 17.8613 28.147C18.5043 27.504 19.3764 27.1428 20.2857 27.1428ZM19.1429 21.4285C19.1429 21.7316 19.2633 22.0223 19.4776 22.2367C19.6919 22.451 19.9826 22.5714 20.2857 22.5714V24.8571C19.3764 24.8571 18.5043 24.4959 17.8613 23.8529C17.2184 23.2099 16.8571 22.3378 16.8571 21.4285H19.1429ZM4.28571 22.5714C4.58882 22.5714 4.87951 22.451 5.09384 22.2367C5.30816 22.0223 5.42857 21.7316 5.42857 21.4285H7.71429C7.71429 22.3378 7.35306 23.2099 6.71008 23.8529C6.0671 24.4959 5.19503 24.8571 4.28571 24.8571V22.5714ZM5.42857 30.5714C5.42857 30.2683 5.30816 29.9776 5.09384 29.7633C4.87951 29.5489 4.58882 29.4285 4.28571 29.4285V27.1428C5.19503 27.1428 6.0671 27.504 6.71008 28.147C7.35306 28.79 7.71429 29.6621 7.71429 30.5714H5.42857ZM8.85714 26C8.85714 25.5497 8.94583 25.1039 9.11813 24.6879C9.29043 24.2719 9.54298 23.894 9.86135 23.5756C10.1797 23.2572 10.5577 23.0047 10.9737 22.8324C11.3896 22.6601 11.8355 22.5714 12.2857 22.5714C12.736 22.5714 13.1818 22.6601 13.5978 22.8324C14.0137 23.0047 14.3917 23.2572 14.7101 23.5756C15.0285 23.894 15.281 24.2719 15.4533 24.6879C15.6256 25.1039 15.7143 25.5497 15.7143 26C15.7143 26.9093 15.3531 27.7813 14.7101 28.4243C14.0671 29.0673 13.195 29.4285 12.2857 29.4285C11.3764 29.4285 10.5043 29.0673 9.86135 28.4243C9.21837 27.7813 8.85714 26.9093 8.85714 26Z" fill="white"/>
</svg>
