<svg width="36" height="36" viewBox="0 0 36 36" fill="none" xmlns="http://www.w3.org/2000/svg">
<path d="M25.2 5.2C24.7757 5.2 24.3687 5.03143 24.0687 4.73137C23.7686 4.43131 23.6 4.02435 23.6 3.6C23.6 3.17565 23.7686 2.76869 24.0687 2.46863C24.3687 2.16857 24.7757 2 25.2 2H31.6C32.0244 2 32.4314 2.16857 32.7314 2.46863C33.0315 2.76869 33.2 3.17565 33.2 3.6V10C33.2 10.4243 33.0315 10.8313 32.7314 11.1314C32.4314 11.4314 32.0244 11.6 31.6 11.6C31.1757 11.6 30.7687 11.4314 30.4687 11.1314C30.1686 10.8313 30 10.4243 30 10V7.4624L20.7312 16.7312C20.4312 17.0312 20.0243 17.1997 19.6 17.1997C19.1758 17.1997 18.7689 17.0312 18.4688 16.7312L14 12.2624L5.53125 20.7312C5.22949 21.0227 4.82532 21.1839 4.40581 21.1803C3.98629 21.1766 3.58499 21.0084 3.28834 20.7117C2.99169 20.4151 2.82342 20.0138 2.81977 19.5942C2.81612 19.1747 2.9774 18.7706 3.26885 18.4688L12.8688 8.8688C13.1689 8.56885 13.5758 8.40034 14 8.40034C14.4243 8.40034 14.8312 8.56885 15.1312 8.8688L19.6 13.3376L27.7376 5.2H25.2ZM6.00005 27.6V32.4C6.00005 32.8243 5.83148 33.2313 5.53142 33.5314C5.23136 33.8314 4.8244 34 4.40005 34C3.9757 34 3.56874 33.8314 3.26868 33.5314C2.96862 33.2313 2.80005 32.8243 2.80005 32.4V27.6C2.80005 27.1757 2.96862 26.7687 3.26868 26.4686C3.56874 26.1686 3.9757 26 4.40005 26C4.8244 26 5.23136 26.1686 5.53142 26.4686C5.83148 26.7687 6.00005 27.1757 6.00005 27.6ZM14 21.2C14 20.7757 13.8315 20.3687 13.5314 20.0686C13.2314 19.7686 12.8244 19.6 12.4 19.6C11.9757 19.6 11.5687 19.7686 11.2687 20.0686C10.9686 20.3687 10.8 20.7757 10.8 21.2V32.4C10.8 32.8243 10.9686 33.2313 11.2687 33.5314C11.5687 33.8314 11.9757 34 12.4 34C12.8244 34 13.2314 33.8314 13.5314 33.5314C13.8315 33.2313 14 32.8243 14 32.4V21.2ZM20.4 22.8C20.8244 22.8 21.2314 22.9686 21.5314 23.2686C21.8315 23.5687 22 23.9757 22 24.4V32.4C22 32.8243 21.8315 33.2313 21.5314 33.5314C21.2314 33.8314 20.8244 34 20.4 34C19.9757 34 19.5687 33.8314 19.2687 33.5314C18.9686 33.2313 18.8 32.8243 18.8 32.4V24.4C18.8 23.9757 18.9686 23.5687 19.2687 23.2686C19.5687 22.9686 19.9757 22.8 20.4 22.8ZM30 16.4C30 15.9757 29.8315 15.5687 29.5314 15.2686C29.2314 14.9686 28.8244 14.8 28.4 14.8C27.9757 14.8 27.5687 14.9686 27.2687 15.2686C26.9686 15.5687 26.8 15.9757 26.8 16.4V32.4C26.8 32.8243 26.9686 33.2313 27.2687 33.5314C27.5687 33.8314 27.9757 34 28.4 34C28.8244 34 29.2314 33.8314 29.5314 33.5314C29.8315 33.2313 30 32.8243 30 32.4V16.4Z" fill="white"/>
</svg>
