<svg width="36" height="36" viewBox="0 0 36 36" fill="none" xmlns="http://www.w3.org/2000/svg">
<path d="M18 4.79999C17.6323 4.79999 17.2682 4.87241 16.9285 5.01313C16.5888 5.15384 16.2801 5.36009 16.0201 5.62009C15.7601 5.88009 15.5539 6.18876 15.4131 6.52847C15.2724 6.86819 15.2 7.23229 15.2 7.59999C15.2 7.96769 15.2724 8.33179 15.4131 8.6715C15.5539 9.01121 15.7601 9.31988 16.0201 9.57989C16.2801 9.83989 16.5888 10.0461 16.9285 10.1869C17.2682 10.3276 17.6323 10.4 18 10.4C18.7426 10.4 19.4548 10.105 19.9799 9.57989C20.505 9.05478 20.8 8.34259 20.8 7.59999C20.8 6.85738 20.505 6.14519 19.9799 5.62009C19.4548 5.09499 18.7426 4.79999 18 4.79999ZM13.2 7.59999C13.2 6.32695 13.7057 5.10605 14.6059 4.20588C15.5061 3.3057 16.727 2.79999 18 2.79999C19.273 2.79999 20.4939 3.3057 21.3941 4.20588C22.2943 5.10605 22.8 6.32695 22.8 7.59999C22.8 8.87303 22.2943 10.0939 21.3941 10.9941C20.4939 11.8943 19.273 12.4 18 12.4C16.727 12.4 15.5061 11.8943 14.6059 10.9941C13.7057 10.0939 13.2 8.87303 13.2 7.59999ZM28.4 6.39999C27.8696 6.39999 27.3609 6.6107 26.9858 6.98577C26.6107 7.36085 26.4 7.86955 26.4 8.39999C26.4 8.93042 26.6107 9.43913 26.9858 9.8142C27.3609 10.1893 27.8696 10.4 28.4 10.4C28.9304 10.4 29.4391 10.1893 29.8142 9.8142C30.1893 9.43913 30.4 8.93042 30.4 8.39999C30.4 7.86955 30.1893 7.36085 29.8142 6.98577C29.4391 6.6107 28.9304 6.39999 28.4 6.39999ZM24.4 8.39999C24.4 7.33912 24.8214 6.32171 25.5716 5.57156C26.3217 4.82142 27.3391 4.39999 28.4 4.39999C29.4609 4.39999 30.4783 4.82142 31.2284 5.57156C31.9786 6.32171 32.4 7.33912 32.4 8.39999C32.4 9.46085 31.9786 10.4783 31.2284 11.2284C30.4783 11.9786 29.4609 12.4 28.4 12.4C27.3391 12.4 26.3217 11.9786 25.5716 11.2284C24.8214 10.4783 24.4 9.46085 24.4 8.39999ZM5.6 8.39999C5.6 7.86955 5.81071 7.36085 6.18579 6.98577C6.56086 6.6107 7.06957 6.39999 7.6 6.39999C8.13043 6.39999 8.63914 6.6107 9.01421 6.98577C9.38929 7.36085 9.6 7.86955 9.6 8.39999C9.6 8.93042 9.38929 9.43913 9.01421 9.8142C8.63914 10.1893 8.13043 10.4 7.6 10.4C7.06957 10.4 6.56086 10.1893 6.18579 9.8142C5.81071 9.43913 5.6 8.93042 5.6 8.39999ZM7.6 4.39999C6.53913 4.39999 5.52172 4.82142 4.77157 5.57156C4.02143 6.32171 3.6 7.33912 3.6 8.39999C3.6 9.46085 4.02143 10.4783 4.77157 11.2284C5.52172 11.9786 6.53913 12.4 7.6 12.4C8.66087 12.4 9.67828 11.9786 10.4284 11.2284C11.1786 10.4783 11.6 9.46085 11.6 8.39999C11.6 7.33912 11.1786 6.32171 10.4284 5.57156C9.67828 4.82142 8.66087 4.39999 7.6 4.39999ZM10.8 17.4C10.8 16.4983 11.1582 15.6334 11.7958 14.9958C12.4335 14.3582 13.2983 14 14.2 14H21.8C22.7017 14 23.5665 14.3582 24.2042 14.9958C24.8418 15.6334 25.2 16.4983 25.2 17.4V26C25.2 27.9095 24.4414 29.7409 23.0912 31.0912C21.7409 32.4414 19.9096 33.2 18 33.2C16.0904 33.2 14.2591 32.4414 12.9088 31.0912C11.5586 29.7409 10.8 27.9095 10.8 26V17.4ZM18 31.2C19.3791 31.2 20.7018 30.6521 21.677 29.6769C22.6521 28.7018 23.2 27.3791 23.2 26V17.4C23.2 17.0287 23.0525 16.6726 22.7899 16.41C22.5274 16.1475 22.1713 16 21.8 16H14.2C13.8287 16 13.4726 16.1475 13.2101 16.41C12.9475 16.6726 12.8 17.0287 12.8 17.4V26C12.8 27.3791 13.3479 28.7018 14.323 29.6769C15.2982 30.6521 16.6209 31.2 18 31.2ZM7.6 28.8C8.26889 28.8002 8.9246 28.614 9.4936 28.2624C9.6688 28.9232 9.9192 29.5528 10.2344 30.1424C9.38107 30.5973 8.42448 30.8235 7.45777 30.7989C6.49107 30.7744 5.5472 30.4999 4.71807 30.0022C3.88894 29.5046 3.20281 28.8007 2.72648 27.9591C2.25015 27.1176 1.99987 26.167 2 25.2V17.4008C1.9999 16.9542 2.08776 16.512 2.25858 16.0994C2.4294 15.6868 2.67982 15.3119 2.99555 14.9961C3.31128 14.6803 3.68613 14.4298 4.09869 14.2589C4.51125 14.088 4.95344 14 5.4 14H9.8C10.0309 14.0005 10.2552 14.0227 10.4728 14.0664C9.97457 14.6225 9.60743 15.2832 9.3984 16H5.4C5.0287 16 4.6726 16.1475 4.41005 16.41C4.1475 16.6726 4 17.0287 4 17.4V25.2C4 26.1548 4.37928 27.0704 5.05442 27.7456C5.72955 28.4207 6.64522 28.8 7.6 28.8ZM28.4 30.8C27.4813 30.8005 26.5766 30.5749 25.7656 30.1432C26.0808 29.5528 26.3312 28.9232 26.5064 28.2624C27.0518 28.5997 27.6773 28.7852 28.3184 28.7997C28.9595 28.8143 29.5928 28.6573 30.1529 28.3451C30.713 28.0329 31.1795 27.5767 31.5042 27.0238C31.829 26.4708 32.0001 25.8412 32 25.2V17.4C32 17.0287 31.8525 16.6726 31.59 16.41C31.3274 16.1475 30.9713 16 30.6 16H26.6016C26.3923 15.2831 26.0249 14.6224 25.5264 14.0664C25.7451 14.0227 25.9696 14.0005 26.2 14H30.6C31.5017 14 32.3665 14.3582 33.0042 14.9958C33.6418 15.6334 34 16.4983 34 17.4V25.2C34 26.6852 33.41 28.1096 32.3598 29.1598C31.3096 30.21 29.8852 30.8 28.4 30.8Z" fill="white"/>
</svg>
