<svg width="36" height="36" viewBox="0 0 36 36" fill="none" xmlns="http://www.w3.org/2000/svg">
<path d="M18 19.7004V1L31.6003 7.80015L18 14.6003" stroke="white" stroke-width="2" stroke-linecap="round" stroke-linejoin="round"/>
<path d="M32.553 14.9776C33.4577 17.7659 33.5424 20.7554 32.7969 23.5904C32.0515 26.4254 30.5073 28.9866 28.3481 30.9693C26.1889 32.952 23.5056 34.2727 20.6175 34.7742C17.7293 35.2758 14.7579 34.9371 12.0566 33.7985C9.35541 32.6599 7.03812 30.7693 5.38046 28.3516C3.72281 25.9339 2.79457 23.0909 2.70618 20.1609C2.61779 17.2308 3.37297 14.337 4.88187 11.8238C6.39077 9.3106 8.58988 7.28374 11.2176 5.98438" stroke="white" stroke-width="2" stroke-linecap="round" stroke-linejoin="round"/>
<path d="M11.2021 14.595C10.3503 15.7289 9.79566 17.058 9.58888 18.4612C9.38209 19.8643 9.5297 21.2969 10.0182 22.6284C10.5068 23.9599 11.3207 25.148 12.3859 26.0845C13.4511 27.0209 14.7337 27.6759 16.1168 27.9899C17.5 28.3038 18.9396 28.2666 20.3047 27.8818C21.6698 27.4969 22.9169 26.7766 23.9324 25.7865C24.9479 24.7963 25.6994 23.5678 26.1187 22.2129C26.5379 20.8579 26.6114 19.4197 26.3325 18.029" stroke="white" stroke-width="2" stroke-linecap="round" stroke-linejoin="round"/>
</svg>
