<svg width="36" height="36" viewBox="0 0 36 36" fill="none" xmlns="http://www.w3.org/2000/svg">
<path d="M16.5489 10.3899C17.1949 9.22886 17.5179 8.65088 18.0007 8.65088C18.4835 8.65088 18.8065 9.22886 19.4525 10.3899L19.619 10.6891C19.8026 11.0189 19.8944 11.1821 20.0372 11.2909C20.1817 11.3997 20.3602 11.4405 20.7172 11.5204L21.0402 11.5952C22.2948 11.8791 22.922 12.0202 23.0716 12.4996C23.2212 12.9789 22.7928 13.4804 21.9378 14.48L21.7168 14.7384C21.4737 15.0223 21.3513 15.1634 21.2969 15.3402C21.2425 15.517 21.2612 15.7056 21.2969 16.0847L21.3309 16.4298C21.4601 17.7643 21.5247 18.4324 21.1354 18.7282C20.7444 19.0239 20.1562 18.7536 18.9816 18.2131L18.679 18.0737C18.3441 17.9207 18.1775 17.8442 18.0007 17.8442C17.8239 17.8442 17.6573 17.9207 17.3224 18.0737L17.0198 18.2131C15.8452 18.7553 15.257 19.0239 14.866 18.7282C14.475 18.4324 14.5413 17.7643 14.6705 16.4298L14.7045 16.0847C14.7402 15.7056 14.7589 15.517 14.7045 15.3402C14.6501 15.1634 14.5277 15.0223 14.2846 14.7384L14.0636 14.48C13.2086 13.4804 12.7802 12.9806 12.9298 12.4996C13.0794 12.0202 13.7066 11.8791 14.9612 11.5952L15.2842 11.5204C15.6412 11.4405 15.8197 11.4014 15.9642 11.2909C16.107 11.1821 16.1988 11.0189 16.3824 10.6891L16.5489 10.3899Z" stroke="white" stroke-width="2"/>
<path d="M29.8988 13.7507C29.8988 15.3134 29.591 16.8607 28.993 18.3045C28.395 19.7482 27.5185 21.06 26.4135 22.165C25.3085 23.27 23.9967 24.1465 22.553 24.7445C21.1093 25.3425 19.5619 25.6503 17.9992 25.6503C16.4365 25.6503 14.8892 25.3425 13.4454 24.7445C12.0017 24.1465 10.6899 23.27 9.58492 22.165C8.47994 21.06 7.60342 19.7482 7.00541 18.3045C6.4074 16.8607 6.09961 15.3134 6.09961 13.7507C6.09961 10.5947 7.35331 7.568 9.58492 5.33639C11.8165 3.10478 14.8432 1.85107 17.9992 1.85107C21.1552 1.85107 24.1819 3.10478 26.4135 5.33639C28.6451 7.568 29.8988 10.5947 29.8988 13.7507Z" stroke="white" stroke-width="2"/>
<path d="M6.87556 18.8506L2.6869 23.1871C1.76893 24.1374 1.30995 24.6134 1.15015 25.0163C0.788064 25.9326 1.09915 26.9508 1.88623 27.4336C2.23302 27.6444 2.8569 27.7107 4.10465 27.8433C4.81013 27.9181 5.16202 27.9538 5.45611 28.0677C5.7851 28.1949 6.08247 28.3921 6.32758 28.6457C6.5727 28.8994 6.75968 29.2033 6.87556 29.5364C6.98436 29.8424 7.02006 30.2062 7.09316 30.9372C7.21895 32.2291 7.28355 32.8751 7.48754 33.2321C7.95333 34.0481 8.9376 34.3677 9.82157 33.9937C10.2126 33.8305 10.6715 33.3562 11.5895 32.4042L18 25.766L24.4105 32.4042C25.3285 33.3562 25.7874 33.8305 26.1784 33.9937C27.0624 34.3677 28.0467 34.0481 28.5125 33.2321C28.7164 32.8751 28.7793 32.2291 28.9068 30.9372C28.9799 30.2062 29.0156 29.8424 29.1244 29.5364C29.3692 28.8531 29.8826 28.321 30.5439 28.0677C30.838 27.9538 31.1899 27.9181 31.8953 27.8433C33.1431 27.7107 33.767 27.6444 34.1138 27.4336C34.9008 26.9508 35.2119 25.9326 34.8498 25.0163C34.6901 24.6134 34.2311 24.1374 33.3131 23.1871L29.1244 18.8506" stroke="white" stroke-width="2"/>
</svg>
