<svg width="36" height="36" viewBox="0 0 36 36" fill="none" xmlns="http://www.w3.org/2000/svg">
<g clip-path="url(#clip0_130_1318)">
<path d="M0.00390972 14.634C0.00163158 11.3248 1.12181 8.11258 3.1814 5.52238C5.24098 2.93217 8.11819 1.11709 11.3429 0.373737C14.5675 -0.369614 17.949 0.00271889 20.9347 1.42989C23.9203 2.85707 26.3337 5.25469 27.7803 8.23097C29.8744 9.2518 31.6942 10.7581 33.0884 12.6246C34.4825 14.491 35.4106 16.6634 35.7953 18.9611C36.18 21.2587 36.0102 23.615 35.3001 25.8337C34.59 28.0525 33.3601 30.0695 31.7128 31.7168C30.0655 33.364 28.0486 34.5939 25.8298 35.3041C23.6111 36.0142 21.2548 36.1839 18.9571 35.7992C16.6595 35.4145 14.487 34.4864 12.6206 33.0923C10.7542 31.6982 9.24788 29.8783 8.22705 27.7843C5.76121 26.5839 3.68261 24.7143 2.22856 22.3891C0.774508 20.0638 0.00361916 17.3765 0.00390972 14.634ZM11.5771 28.9384C12.6511 30.3314 14.0098 31.4793 15.5625 32.3057C17.1152 33.1321 18.8262 33.618 20.5815 33.731C22.3368 33.844 24.0961 33.5814 25.7419 32.9609C27.3877 32.3403 28.8824 31.376 30.1261 30.1323C31.3699 28.8885 32.3342 27.3939 32.9547 25.7481C33.5753 24.1022 33.8378 22.343 33.7248 20.5877C33.6119 18.8324 33.126 17.1214 32.2996 15.5687C31.4731 14.016 30.3252 12.6573 28.9323 11.5832C29.4417 13.969 29.3461 16.4444 28.6543 18.7838C27.9625 21.1233 26.6964 23.2525 24.9714 24.9776C23.2463 26.7026 21.1171 27.9687 18.7777 28.6605C16.4382 29.3523 13.9629 29.4479 11.5771 28.9384ZM9.92792 26.0834C10.7469 26.4224 11.6048 26.6699 12.5017 26.8258L9.18548 23.5096C9.34147 24.405 9.58895 25.263 9.92792 26.0834ZM15.809 26.9518C16.7059 26.867 17.5908 26.6844 18.448 26.4074L9.84468 17.8063C9.54222 18.6213 9.3192 19.4636 9.17873 20.3216L15.809 26.9518ZM20.6619 25.4399C21.3308 25.065 21.9593 24.633 22.5472 24.144L12.1935 13.7926C11.7017 14.3737 11.2599 14.9953 10.8729 15.6509L20.6619 25.4399ZM24.1379 22.5512C24.6253 21.9662 25.0573 21.3385 25.4338 20.668L15.647 10.8768C14.9906 11.2637 14.3682 11.7055 13.7864 12.1974L24.1356 22.5512H24.1379ZM26.4012 18.452C26.6757 17.609 26.8572 16.7301 26.9457 15.8152L20.3154 9.1849C19.4455 9.32889 18.607 9.55087 17.8001 9.85085L26.4012 18.4542V18.452ZM26.8197 12.5079C26.6661 11.6256 26.4171 10.7626 26.0772 9.93409C25.2487 9.5942 24.3857 9.34526 23.5034 9.19165L26.8197 12.5079Z" fill="white"/>
</g>
<defs>
<clipPath id="clip0_130_1318">
<rect width="36" height="36" fill="white"/>
</clipPath>
</defs>
</svg>
