<svg width="761" height="530" viewBox="0 0 761 530" fill="none" xmlns="http://www.w3.org/2000/svg">
<g clip-path="url(#clip0_69_29063)">
<mask id="mask0_69_29063" style="mask-type:luminance" maskUnits="userSpaceOnUse" x="188" y="0" width="611" height="672">
<path d="M798.154 0H188.777V671.877H798.154V0Z" fill="white"/>
</mask>
<g mask="url(#mask0_69_29063)">
<path d="M624.988 1016.06V429.993" stroke="#5C5E6F" stroke-width="0.784744"/>
<path d="M372.281 1016.06V429.993" stroke="#5C5E6F" stroke-width="0.784744"/>
<path d="M498.64 1088.26V502.19" stroke="#5C5E6F" stroke-width="0.784744"/>
<path opacity="0.8" d="M-167.028 731.444L495.047 342.902L1156.41 734.949L-167.028 731.444Z" fill="white" fill-opacity="0.03" stroke="white" stroke-opacity="0.15" stroke-width="1.93236"/>
<path d="M660.077 350.171C661.377 350.171 662.431 349.117 662.431 347.817C662.431 346.516 661.377 345.462 660.077 345.462C658.776 345.462 657.722 346.516 657.722 347.817C657.722 349.117 658.776 350.171 660.077 350.171Z" fill="#5CD3DD"/>
<path d="M699.16 173.157C701.327 173.157 703.084 171.412 703.084 169.26C703.084 167.107 701.327 165.362 699.16 165.362C696.993 165.362 695.236 167.107 695.236 169.26C695.236 171.412 696.993 173.157 699.16 173.157Z" fill="#00CCB3"/>
<path d="M736.984 351.74C739.151 351.74 740.908 349.983 740.908 347.816C740.908 345.649 739.151 343.893 736.984 343.893C734.817 343.893 733.06 345.649 733.06 347.816C733.06 349.983 734.817 351.74 736.984 351.74Z" fill="#5CD3DD"/>
<path d="M328.917 278.12C330.217 278.12 331.271 277.012 331.271 275.644C331.271 274.277 330.217 273.169 328.917 273.169C327.616 273.169 326.562 274.277 326.562 275.644C326.562 277.012 327.616 278.12 328.917 278.12Z" fill="#5900F5"/>
<path d="M581.934 145.775C582.801 145.775 583.504 145.073 583.504 144.206C583.504 143.339 582.801 142.636 581.934 142.636C581.068 142.636 580.365 143.339 580.365 144.206C580.365 145.073 581.068 145.775 581.934 145.775Z" fill="#00CCB3"/>
<path d="M535.182 164.972C536.915 164.972 538.321 163.567 538.321 161.833C538.321 160.099 536.915 158.694 535.182 158.694C533.448 158.694 532.043 160.099 532.043 161.833C532.043 163.567 533.448 164.972 535.182 164.972Z" fill="#2E2E2E"/>
<path d="M527.948 390.914C528.815 390.914 529.518 390.225 529.518 389.376C529.518 388.527 528.815 387.838 527.948 387.838C527.081 387.838 526.379 388.527 526.379 389.376C526.379 390.225 527.081 390.914 527.948 390.914Z" fill="#5900F5"/>
<path d="M268.69 299.699C272.157 299.699 274.968 296.888 274.968 293.421C274.968 289.954 272.157 287.143 268.69 287.143C265.223 287.143 262.412 289.954 262.412 293.421C262.412 296.888 265.223 299.699 268.69 299.699Z" fill="#24F043" fill-opacity="0.28"/>
<path d="M698.311 375.579C700.221 375.579 701.769 374.031 701.769 372.121C701.769 370.212 700.221 368.663 698.311 368.663C696.401 368.663 694.853 370.212 694.853 372.121C694.853 374.031 696.401 375.579 698.311 375.579Z" fill="#2E2E2E"/>
<path d="M334.404 339.409C336.138 339.409 337.543 338.003 337.543 336.27C337.543 334.536 336.138 333.131 334.404 333.131C332.671 333.131 331.265 334.536 331.265 336.27C331.265 338.003 332.671 339.409 334.404 339.409Z" fill="#2E2E2E"/>
<path d="M655.375 336.046C656.676 336.046 657.73 334.992 657.73 333.691C657.73 332.391 656.676 331.337 655.375 331.337C654.075 331.337 653.021 332.391 653.021 333.691C653.021 334.992 654.075 336.046 655.375 336.046Z" fill="#2E2E2E"/>
<path d="M708.795 422.317C710.962 422.317 712.718 420.56 712.718 418.393C712.718 416.226 710.962 414.469 708.795 414.469C706.628 414.469 704.871 416.226 704.871 418.393C704.871 420.56 706.628 422.317 708.795 422.317Z" fill="#24F043" fill-opacity="0.28"/>
<path d="M521.954 313.897C523.218 313.897 524.243 312.873 524.243 311.609C524.243 310.345 523.218 309.32 521.954 309.32C520.69 309.32 519.666 310.345 519.666 311.609C519.666 312.873 520.69 313.897 521.954 313.897Z" fill="#5900F5"/>
<path d="M534.519 423.979C538.42 423.979 541.582 420.817 541.582 416.917C541.582 413.016 538.42 409.854 534.519 409.854C530.619 409.854 527.457 413.016 527.457 416.917C527.457 420.817 530.619 423.979 534.519 423.979Z" fill="#5CD3DD"/>
<path d="M403.934 220.749C405.234 220.749 406.288 219.695 406.288 218.394C406.288 217.094 405.234 216.04 403.934 216.04C402.634 216.04 401.58 217.094 401.58 218.394C401.58 219.695 402.634 220.749 403.934 220.749Z" fill="#24F043" fill-opacity="0.28"/>
<path d="M547.076 102.193C547.509 102.193 547.861 101.841 547.861 101.408C547.861 100.974 547.509 100.623 547.076 100.623C546.642 100.623 546.291 100.974 546.291 101.408C546.291 101.841 546.642 102.193 547.076 102.193Z" fill="#5CD3DD"/>
<path d="M335.128 488.286C337.331 488.286 339.117 486.529 339.117 484.362C339.117 482.195 337.331 480.438 335.128 480.438C332.924 480.438 331.138 482.195 331.138 484.362C331.138 486.529 332.924 488.286 335.128 488.286Z" fill="#5900F5"/>
<path d="M545.507 172.82C547.674 172.82 549.431 171.063 549.431 168.896C549.431 166.729 547.674 164.972 545.507 164.972C543.34 164.972 541.583 166.729 541.583 168.896C541.583 171.063 543.34 172.82 545.507 172.82Z" fill="#00CCB3"/>
<path d="M235.532 401.964C236.399 401.964 237.102 401.262 237.102 400.395C237.102 399.528 236.399 398.825 235.532 398.825C234.665 398.825 233.963 399.528 233.963 400.395C233.963 401.262 234.665 401.964 235.532 401.964Z" fill="#24F043" fill-opacity="0.28"/>
<path d="M407.86 152.51C408.727 152.51 409.43 151.807 409.43 150.941C409.43 150.074 408.727 149.371 407.86 149.371C406.993 149.371 406.291 150.074 406.291 150.941C406.291 151.807 406.993 152.51 407.86 152.51Z" fill="#5900F5"/>
<path d="M599.653 58.2459C600.52 58.2459 601.223 57.5422 601.223 56.6741C601.223 55.806 600.52 55.1023 599.653 55.1023C598.786 55.1023 598.084 55.806 598.084 56.6741C598.084 57.5422 598.786 58.2459 599.653 58.2459Z" fill="#5900F5"/>
<path d="M495.025 195.641L620.739 268.224V417.243L495.009 489.371L368.648 416.243V267.83L495.025 195.641Z" fill="white" fill-opacity="0.03"/>
<path d="M620.739 268.224L495.025 195.641L368.648 267.83M620.739 268.224V417.243L495.009 489.371M620.739 268.224L521.341 325.349L494.522 340.902M368.648 267.83V416.243L495.009 489.371M368.648 267.83L494.522 340.902M495.009 489.371L494.522 340.902" stroke="#5C5E6F" stroke-width="1.56949"/>
<path d="M509.84 260.49L633.977 372.121" stroke="#928F8F" stroke-width="1.85785" stroke-dasharray="0.78 3.14"/>
<path d="M526.982 236.518L596.279 182.236" stroke="#928F8F" stroke-width="1.85785" stroke-dasharray="0.78 3.14"/>
<path d="M509.843 264.412C512.01 264.412 513.767 262.655 513.767 260.488C513.767 258.321 512.01 256.564 509.843 256.564C507.676 256.564 505.92 258.321 505.92 260.488C505.92 262.655 507.676 264.412 509.843 264.412Z" fill="#5900F5"/>
<path d="M640.46 382.055C644.037 382.055 646.937 379.155 646.937 375.578C646.937 372 644.037 369.1 640.46 369.1C636.882 369.1 633.982 372 633.982 375.578C633.982 379.155 636.882 382.055 640.46 382.055Z" fill="#5900F5"/>
<path d="M407.861 382.056C410.028 382.056 411.785 380.299 411.785 378.132C411.785 375.965 410.028 374.208 407.861 374.208C405.694 374.208 403.937 375.965 403.937 378.132C403.937 380.299 405.694 382.056 407.861 382.056Z" fill="#5900F5"/>
<path d="M525.222 240.373C527.021 240.959 528.954 239.975 529.539 238.176C530.125 236.378 529.141 234.445 527.342 233.859C525.544 233.274 523.611 234.257 523.025 236.056C522.44 237.855 523.423 239.787 525.222 240.373Z" fill="#5900F5"/>
<path d="M595.063 185.967C597.124 186.638 599.338 185.512 600.009 183.451C600.679 181.39 599.553 179.176 597.492 178.505C595.432 177.835 593.217 178.961 592.547 181.022C591.876 183.082 593.002 185.297 595.063 185.967Z" fill="#5900F5"/>
<path d="M336.293 482.932L463.701 379.701" stroke="#928F8F" stroke-width="1.85785" stroke-dasharray="0.78 3.14"/>
<path d="M463.7 385.196C466.734 385.196 469.193 382.736 469.193 379.703C469.193 376.669 466.734 374.209 463.7 374.209C460.666 374.209 458.207 376.669 458.207 379.703C458.207 382.736 460.666 385.196 463.7 385.196Z" fill="#5900F5"/>
</g>
</g>
<defs>
<clipPath id="clip0_69_29063">
<rect width="958.653" height="671.305" fill="white" transform="translate(-160.5)"/>
</clipPath>
</defs>
</svg>
