<svg width="523" height="348" viewBox="0 0 523 348" fill="none" xmlns="http://www.w3.org/2000/svg">
<g clip-path="url(#clip0_69_29113)">
<mask id="mask0_69_29113" style="mask-type:alpha" maskUnits="userSpaceOnUse" x="0" y="0" width="528" height="477">
<path d="M527.597 0H0.5V476.64H527.597V0Z" fill="url(#paint0_linear_69_29113)"/>
</mask>
<g mask="url(#mask0_69_29113)">
<g style="mix-blend-mode:lighten">
<path opacity="0.6" d="M156.288 522.559C153.963 521.141 158.199 509.092 168.538 487.602C178.877 466.113 194.97 435.947 215.189 400.128C235.41 364.309 259.047 324.111 283.729 283.581C308.423 243.034 333.285 203.592 355.812 169.18C378.357 134.778 397.778 106.64 412.122 87.6006C426.476 68.5425 435.246 59.2656 437.571 60.6835" stroke="white" stroke-opacity="0.25" stroke-width="0.786561"/>
<path opacity="0.6" d="M122.328 498.108C112.669 489.935 111.241 472.363 118.175 447.159C125.129 421.968 140.22 390.006 161.92 354.528C183.621 319.051 211.194 281.291 241.841 245.061C272.498 208.812 305.145 175.362 336.504 148.057C367.884 120.763 396.866 100.565 420.558 89.5274C444.252 78.4898 461.817 76.982 471.487 85.1357" stroke="white" stroke-opacity="0.25" stroke-width="0.786561"/>
<path opacity="0.6" d="M89.1999 464.735C75.2753 448.018 71.2113 423.616 77.3776 393.964C83.5438 364.31 99.7668 330.447 124.384 295.779C149.001 261.111 181.157 226.857 217.621 196.465C254.088 166.073 293.577 140.625 332.099 122.662C370.641 104.711 406.861 94.859 437.16 94.1205C467.448 93.4013 490.726 101.797 504.63 118.503" stroke="white" stroke-opacity="0.25" stroke-width="0.786561"/>
<path opacity="0.6" d="M57.1554 416.653C43.5838 390.641 41.3255 359.296 50.6201 325.786C59.9147 292.278 80.4335 257.787 110.086 225.764C139.758 193.75 177.524 165.346 219.606 143.388C261.688 121.429 306.615 106.745 349.839 100.732C393.084 94.7307 433.108 97.6715 465.895 109.223C498.683 120.774 523.092 140.579 536.662 166.59" stroke="white" stroke-opacity="0.25" stroke-width="0.786561"/>
<path opacity="0.6" d="M31.7899 344.748C24.9235 310.49 30.429 274.37 47.752 240.029C65.0752 205.689 93.5998 174.329 130.474 149.124C167.349 123.92 211.259 105.735 257.796 96.3996C304.333 87.0639 351.86 86.9323 395.601 95.9862C439.341 105.04 477.746 122.975 506.961 147.98C536.175 172.985 555.176 204.213 562.041 238.471" stroke="white" stroke-opacity="0.25" stroke-width="0.786561"/>
<path opacity="0.6" d="M30.8904 243.178C37.7258 205.619 56.7357 170.976 86.0173 142.719C115.28 114.452 153.78 93.5665 197.654 82.1447C241.517 70.7421 289.193 69.2007 335.889 77.7192C382.596 86.2183 426.671 104.468 463.68 130.612C500.69 156.757 529.375 189.869 546.789 226.645C564.203 263.42 569.789 302.535 562.953 340.093" stroke="white" stroke-opacity="0.25" stroke-width="0.786561"/>
<path opacity="0.6" d="M78.1541 132.697C112.603 85.2919 168.676 56.5508 234.066 52.8247C299.456 49.0987 368.78 70.6896 426.798 112.827C484.814 154.965 526.788 214.236 543.459 277.551C560.119 340.887 550.147 403.098 515.717 450.514" stroke="white" stroke-opacity="0.25" stroke-width="0.786561"/>
<path opacity="0.6" d="M161.789 57.391C209.895 29.6422 270.277 27.6901 329.64 51.9993C389.003 76.3085 442.484 124.836 478.312 186.971C514.149 249.085 529.407 319.689 520.714 383.243C512.019 446.799 480.115 498.097 432.009 525.847" stroke="white" stroke-opacity="0.25" stroke-width="0.786561"/>
<path opacity="0.6" d="M243.777 26.488C291.532 16.9178 342.925 35.6625 386.664 78.6282C430.403 121.594 462.878 185.208 476.979 255.523C491.078 325.839 485.609 397.08 461.81 453.564C438.012 510.047 397.809 547.17 350.052 556.74" stroke="white" stroke-opacity="0.25" stroke-width="0.786561"/>
<path opacity="0.6" d="M308.916 21.4879C347.417 23.204 383.087 53.3115 408.068 105.171C433.05 157.031 445.279 226.434 442.117 298.073C438.927 369.718 420.592 437.74 391.107 487.191C361.62 536.644 323.437 563.475 284.935 561.76" stroke="white" stroke-opacity="0.25" stroke-width="0.786561"/>
<path opacity="0.6" d="M359.644 28.6052C384.702 34.5725 402.11 68.0296 408.062 121.571C414.015 175.113 408.014 244.391 391.366 314.158C374.729 383.905 348.81 448.447 319.334 493.554C289.858 538.658 259.223 560.646 234.178 554.659" stroke="white" stroke-opacity="0.25" stroke-width="0.786561"/>
<path opacity="0.6" d="M401.191 42.1273C411.541 46.4576 410.462 76.886 398.222 126.729C385.983 176.571 363.581 241.751 335.927 307.911C308.273 374.074 277.651 435.826 250.76 479.558C223.899 523.281 202.993 545.432 192.642 541.103" stroke="white" stroke-opacity="0.25" stroke-width="0.786561"/>
<path opacity="0.6" d="M204.33 545.697C177.937 536.078 152.307 521.845 130.188 504.526M302.935 561.96C261.288 562.901 212.52 549.36 167.625 524.429C122.73 499.5 85.4869 465.253 64.239 429.411M367.377 552.696C314.414 566.994 240.445 552.719 172.801 515.156C105.157 477.593 53.9374 422.349 38.0761 369.834M420.937 531.899C393.018 546.309 355.128 551.007 312.3 545.371C269.471 539.732 223.671 524.042 181.018 500.357C138.366 476.674 100.825 446.108 73.4099 412.714C45.9842 379.338 29.9436 344.692 27.4168 313.376M466.327 502.387C439.044 524.313 397.103 534.076 347.309 530.088C297.515 526.1 242.8 508.599 192.062 480.425C141.325 452.249 97.5441 415.055 67.8368 374.896C38.1296 334.736 24.2454 293.974 28.4337 259.223M503.9 465.626C479.35 494.84 435.355 509.991 380.357 508.175C325.348 506.379 263.163 487.741 205.734 455.848C148.304 423.957 99.6113 381.025 69.0068 335.28C38.4023 289.536 28.0054 244.18 39.8159 207.918M533.324 422.896C520.1 446.707 496.195 464.005 464.01 473.11C431.804 482.205 392.47 482.76 349.924 474.698C307.379 466.636 263.142 450.272 221.632 427.221C180.12 404.17 142.844 375.271 113.51 343.416C84.1766 311.564 63.836 277.871 54.5504 245.735C45.2455 213.589 47.3222 184.147 60.5341 160.354M533.324 422.896C498.51 485.587 440.2 531.89 371.247 551.606C302.292 571.321 228.349 562.832 165.638 528.007C102.947 493.195 56.6432 434.886 36.917 365.952C17.2015 296.997 25.691 223.054 60.5147 160.343C95.3278 97.6513 153.637 51.3478 222.572 31.6216C291.525 11.9062 365.47 20.3958 428.18 55.2196C490.871 90.0324 537.175 148.342 556.902 217.277C576.616 286.23 568.136 360.205 533.324 422.896ZM554.042 375.332C545.017 403.068 523.413 424.2 491.71 436.308C460.019 448.394 419.538 450.971 374.906 443.7C330.266 436.45 283.286 419.649 239.376 395.267C195.447 370.871 156.37 339.884 126.617 305.823C96.8633 271.763 77.6205 236.048 71.1477 202.766C64.6556 169.475 71.1915 139.977 89.9569 117.623M565.375 324.023C561.624 355.069 543.639 379.754 513.787 394.864C483.925 409.991 443.566 414.811 398.022 408.73C352.478 402.648 303.86 385.925 258.539 360.758C213.218 335.59 173.321 303.161 144.083 267.716C114.845 232.271 97.6008 195.464 94.6567 162.118C91.7126 128.772 103.159 100.456 127.519 80.8805M566.44 269.874C569.148 303.417 556.202 331.382 529.566 349.541C502.93 367.701 464.052 375.091 418.779 370.576C373.504 366.061 324.316 349.907 278.628 324.536C232.938 299.166 193.205 265.941 165.459 229.907C137.693 193.861 123.414 156.955 124.749 124.745C126.084 92.535 142.996 66.7735 172.882 51.3292M555.78 213.415C566.366 248.498 560.262 279.451 538.528 300.814C516.796 322.178 480.839 332.556 437.021 330.115C393.22 327.684 344.393 312.566 299.208 287.474C254.022 262.383 215.398 228.938 190.161 193.033C164.944 157.138 154.746 121.131 161.392 91.3892C168.037 61.6475 191.097 40.084 226.462 30.5421M529.58 153.817C550.446 189.068 554.119 222.97 539.769 248.129C525.418 273.289 494.221 287.675 453.001 288.119C411.77 288.583 363.844 275.08 319.703 250.567C275.561 226.056 238.763 192.513 217.361 157.268C195.959 122.023 191.669 87.9556 205.439 62.4741C219.21 36.9928 249.929 22.1887 290.884 21.2674M463.639 78.7317C493.182 101.869 514.713 129.136 524.286 155.509C533.842 181.872 530.786 205.559 515.648 222.156C500.508 238.754 474.347 247.129 441.979 245.758C409.611 244.387 373.258 233.334 339.658 214.677C306.039 196.008 277.459 171.001 259.184 144.252C240.911 117.502 234.19 90.866 240.276 69.2413C246.363 47.6166 264.835 32.4904 292.283 26.6764C319.711 20.8514 354.258 24.7239 389.515 37.5705M500.058 178.675C490.993 195.001 470.977 204.387 444.447 204.763C417.898 205.128 387.006 196.453 358.552 180.652C330.079 164.841 306.384 143.205 292.68 120.486C278.955 97.7557 276.349 75.834 285.425 59.4889C294.492 43.1633 314.507 33.7789 341.038 33.4021C367.586 33.036 398.479 41.7121 426.932 57.5127C455.386 73.3133 479.101 94.9603 492.805 117.679C506.51 140.398 509.125 162.35 500.058 178.675ZM472.237 148.017C466.061 159.139 452.445 165.522 434.388 165.771C416.332 166.019 395.284 160.126 375.921 149.374C356.559 138.622 340.419 123.889 331.095 108.411C321.761 92.9531 319.98 78.0199 326.158 66.8974C332.334 55.7751 345.95 49.392 364.008 49.1436C382.063 48.8951 403.112 54.7881 422.475 65.5402C441.837 76.2924 457.976 91.0251 467.3 106.503C476.635 121.961 478.414 136.894 472.237 148.017ZM440.105 120.885C433.595 132.607 411.765 132.91 391.338 121.567C370.911 110.224 359.626 91.5318 366.136 79.8098C372.646 68.0877 394.477 67.7848 414.904 79.1279C435.33 90.4707 446.614 109.163 440.105 120.885Z" stroke="white" stroke-opacity="0.25" stroke-width="0.786561"/>
<path opacity="0.6" d="M289.644 114.478C266.911 120.954 235.857 134.014 211.864 147.603C208.296 140.578 200.803 123.863 199.373 113.206" stroke="url(#paint1_linear_69_29113)" stroke-width="0.786561"/>
<path opacity="0.6" d="M249.997 128.9C221.554 139.986 169.148 171.182 142.72 194.659" stroke="url(#paint2_linear_69_29113)" stroke-width="0.786561"/>
</g>
<path d="M289.279 111.361C291.351 111.361 292.931 112.91 292.931 114.704C292.931 116.498 291.351 118.048 289.279 118.048C287.207 118.048 285.625 116.498 285.625 114.704C285.625 112.91 287.207 111.361 289.279 111.361Z" fill="#00CCB3" stroke="#00CCB3" stroke-width="1.57312"/>
<path d="M142.356 190.5C144.428 190.5 146.009 192.05 146.009 193.843C146.009 195.637 144.428 197.188 142.356 197.188C140.284 197.188 138.703 195.637 138.703 193.843C138.703 192.05 140.284 190.5 142.356 190.5Z" fill="#00CCB3" stroke="#00CCB3" stroke-width="1.57312"/>
<path d="M442.181 239.863C444.254 239.863 445.834 241.414 445.834 243.208C445.834 245.003 444.254 246.551 442.181 246.551C440.109 246.551 438.527 245.003 438.527 243.208C438.527 241.414 440.109 239.863 442.181 239.863Z" fill="#00CCB3" stroke="#00CCB3" stroke-width="1.57312"/>
<path d="M289.277 114.251C285.658 107.875 278.746 91.6996 280.037 78.0016C281.329 64.3037 286.758 57.1323 288.374 55.1287C264.919 51.4459 214.002 49.4431 173.812 64.0457" stroke="url(#paint3_linear_69_29113)" stroke-width="0.786561"/>
<path d="M173.812 64.0457C214.002 49.4431 264.919 51.4459 288.373 55.1287C286.99 56.8432 282.816 62.3418 280.832 72.476" stroke="url(#paint4_linear_69_29113)" stroke-width="0.786561"/>
<path d="M218.797 273.901C227.026 261.114 255.138 229.534 268.234 215.078C255.609 205.035 241.271 188.959 235.562 182.085C256.15 165.657 290.07 145.065 304.456 136.823C300.665 132.292 292.339 121.572 289.356 114.939" stroke="url(#paint5_linear_69_29113)" stroke-width="0.786561"/>
<path d="M345.732 281.798C354.608 265.624 371.647 214.366 379.59 190.954C344.489 176.394 319.495 154.46 304.443 136.743" stroke="url(#paint6_linear_69_29113)" stroke-width="0.786561"/>
<path d="M441.698 246.166C409.764 244.396 378.506 233.402 366.869 228.128C369.931 219.72 376.769 200.524 379.627 191.001" stroke="url(#paint7_linear_69_29113)" stroke-width="0.786561"/>
<path d="M303.458 50.1538H275.832C271.705 50.1538 268.359 53.4993 268.359 57.6261V85.2521C268.359 89.3789 271.705 92.7244 275.832 92.7244H303.458C307.584 92.7244 310.93 89.3789 310.93 85.2521V57.6261C310.93 53.4993 307.584 50.1538 303.458 50.1538Z" fill="#00CCB3"/>
<path fill-rule="evenodd" clip-rule="evenodd" d="M280.992 63.5719C280.992 62.2686 282.048 61.2122 283.352 61.2122H295.937C297.241 61.2122 298.297 62.2686 298.297 63.5719V66.7181C298.297 67.5567 297.859 68.2929 297.2 68.7114V74.1662C297.859 74.5849 298.297 75.3211 298.297 76.1596V79.3059C298.297 80.6089 297.241 81.6654 295.937 81.6654H283.352C282.048 81.6654 280.992 80.6089 280.992 79.3059V76.1596C280.992 75.3111 281.44 74.5673 282.112 74.1514V68.7261C281.44 68.3103 280.992 67.5665 280.992 66.7181V63.5719ZM295.961 67.5043H283.328C282.904 67.4913 282.565 67.1443 282.565 66.7181V63.5719C282.565 63.1376 282.918 62.7854 283.352 62.7854H295.937C296.372 62.7854 296.724 63.1376 296.724 63.5719V66.7181C296.724 67.1443 296.385 67.4913 295.961 67.5043ZM283.686 69.0778V73.7968H295.627V69.0778H283.686ZM283.352 75.373C282.918 75.373 282.565 75.7252 282.565 76.1596V79.3059C282.565 79.7402 282.918 80.0924 283.352 80.0924H295.937C296.372 80.0924 296.724 79.7402 296.724 79.3059V76.1596C296.724 75.7252 296.372 75.373 295.937 75.373H283.352Z" fill="white"/>
<path d="M156.534 129.293H128.908C124.781 129.293 121.435 132.639 121.435 136.766V164.391C121.435 168.518 124.781 171.864 128.908 171.864H156.534C160.66 171.864 164.006 168.518 164.006 164.391V136.766C164.006 132.639 160.66 129.293 156.534 129.293Z" fill="#00CCB3"/>
<path fill-rule="evenodd" clip-rule="evenodd" d="M148.595 150.334C148.812 149.958 149.293 149.829 149.669 150.046L151.691 151.213C152.422 151.635 152.871 152.414 152.871 153.257V154.614C152.871 155.457 152.422 156.236 151.691 156.657L145.429 160.273C143.725 161.257 141.626 161.257 139.923 160.273L133.66 156.657C132.93 156.236 132.48 155.457 132.48 154.614V153.417C132.48 152.585 132.918 151.815 133.632 151.39L135.878 150.051C136.251 149.829 136.734 149.951 136.956 150.324C137.179 150.697 137.056 151.18 136.683 151.403L134.437 152.741C134.199 152.883 134.053 153.14 134.053 153.417V154.614C134.053 154.895 134.203 155.154 134.447 155.295L140.709 158.911C141.926 159.613 143.425 159.613 144.642 158.911L150.905 155.295C151.148 155.154 151.298 154.895 151.298 154.614V153.257C151.298 152.976 151.148 152.716 150.905 152.576L148.883 151.408C148.507 151.191 148.378 150.71 148.595 150.334Z" fill="white"/>
<path fill-rule="evenodd" clip-rule="evenodd" d="M140.688 140.473C141.911 139.744 143.434 139.734 144.667 140.446L151.691 144.501C152.422 144.923 152.871 145.702 152.871 146.545V147.902C152.871 148.745 152.422 149.524 151.691 149.945L145.429 153.561C143.725 154.545 141.626 154.545 139.923 153.561L133.66 149.945C132.93 149.524 132.48 148.745 132.48 147.902V146.705C132.48 145.873 132.918 145.103 133.632 144.678L140.688 140.473ZM143.881 141.808C143.141 141.381 142.227 141.387 141.493 141.825L134.437 146.029C134.199 146.171 134.053 146.428 134.053 146.705V147.902C134.053 148.183 134.203 148.443 134.447 148.583L140.709 152.199C141.926 152.901 143.425 152.901 144.642 152.199L150.905 148.583C151.148 148.443 151.298 148.183 151.298 147.902V146.545C151.298 146.264 151.148 146.004 150.905 145.864L143.881 141.808Z" fill="white"/>
<path fill-rule="evenodd" clip-rule="evenodd" d="M152.519 152.098C152.731 152.477 152.596 152.956 152.218 153.169L144.654 157.415C143.456 158.088 141.994 158.086 140.797 157.412L133.271 153.168C132.893 152.955 132.759 152.475 132.972 152.097C133.186 151.718 133.666 151.584 134.044 151.798L141.57 156.041C142.288 156.446 143.165 156.447 143.884 156.043L151.448 151.797C151.826 151.584 152.306 151.719 152.519 152.098Z" fill="white"/>
<path fill-rule="evenodd" clip-rule="evenodd" d="M152.519 145.386C152.731 145.765 152.596 146.245 152.218 146.458L144.654 150.704C143.456 151.376 141.994 151.375 140.797 150.7L133.271 146.457C132.893 146.243 132.759 145.764 132.972 145.385C133.186 145.007 133.666 144.873 134.044 145.086L141.57 149.33C142.288 149.735 143.165 149.735 143.884 149.332L151.448 145.086C151.826 144.873 152.306 145.008 152.519 145.386Z" fill="white"/>
<path d="M456.36 178.658H428.734C424.607 178.658 421.261 182.003 421.261 186.13V213.756C421.261 217.883 424.607 221.228 428.734 221.228H456.36C460.486 221.228 463.832 217.883 463.832 213.756V186.13C463.832 182.003 460.486 178.658 456.36 178.658Z" fill="#00CCB3"/>
<path fill-rule="evenodd" clip-rule="evenodd" d="M448.418 199.697C448.636 199.321 449.117 199.193 449.494 199.409L451.515 200.576C452.246 200.998 452.694 201.778 452.694 202.62V203.977C452.694 204.821 452.246 205.599 451.515 206.021L445.252 209.637C443.549 210.621 441.449 210.621 439.746 209.637L433.484 206.021C432.754 205.599 432.304 204.821 432.304 203.977V202.78C432.304 201.949 432.742 201.179 433.456 200.754L435.702 199.415C436.074 199.193 436.558 199.314 436.779 199.689C437.002 200.061 436.879 200.545 436.507 200.766L434.261 202.105C434.023 202.248 433.877 202.504 433.877 202.78V203.977C433.877 204.258 434.027 204.519 434.269 204.659L440.533 208.274C441.75 208.977 443.249 208.977 444.465 208.274L450.729 204.659C450.972 204.519 451.121 204.258 451.121 203.977V202.62C451.121 202.339 450.972 202.081 450.729 201.94L448.706 200.771C448.33 200.555 448.202 200.074 448.418 199.697Z" fill="white"/>
<path fill-rule="evenodd" clip-rule="evenodd" d="M440.511 189.838C441.736 189.108 443.258 189.098 444.491 189.809L451.515 193.866C452.246 194.288 452.694 195.066 452.694 195.908V197.265C452.694 198.109 452.246 198.887 451.515 199.309L445.252 202.924C443.549 203.909 441.449 203.909 439.746 202.924L433.484 199.309C432.754 198.887 432.304 198.109 432.304 197.265V196.07C432.304 195.237 432.742 194.467 433.456 194.042L440.511 189.838ZM443.704 191.172C442.964 190.744 442.05 190.752 441.317 191.189L434.261 195.393C434.023 195.536 433.877 195.792 433.877 196.07V197.265C433.877 197.546 434.027 197.806 434.269 197.947L440.533 201.562C441.75 202.265 443.249 202.265 444.465 201.562L450.729 197.947C450.972 197.806 451.121 197.546 451.121 197.265V195.908C451.121 195.629 450.972 195.369 450.729 195.228L443.704 191.172Z" fill="white"/>
<path fill-rule="evenodd" clip-rule="evenodd" d="M452.346 201.462C452.559 201.84 452.425 202.32 452.046 202.533L444.483 206.779C443.284 207.452 441.822 207.45 440.625 206.775L433.099 202.533C432.721 202.318 432.587 201.838 432.8 201.46C433.015 201.083 433.494 200.949 433.872 201.162L441.398 205.404C442.115 205.81 442.992 205.81 443.711 205.408L451.276 201.162C451.655 200.949 452.133 201.083 452.346 201.462Z" fill="white"/>
<path fill-rule="evenodd" clip-rule="evenodd" d="M452.346 194.75C452.559 195.129 452.425 195.609 452.046 195.822L444.483 200.068C443.284 200.74 441.822 200.738 440.625 200.065L433.099 195.82C432.721 195.607 432.587 195.128 432.8 194.75C433.015 194.37 433.494 194.237 433.872 194.451L441.398 198.694C442.115 199.098 442.992 199.1 443.711 198.696L451.276 194.449C451.655 194.237 452.133 194.372 452.346 194.75Z" fill="white"/>
<path d="M289.277 113.89V93.1177V113.89Z" fill="#00CCB3"/>
<path d="M289.277 113.89V93.1177" stroke="#00CCB3" stroke-width="0.786561" stroke-dasharray="0.79 1.58"/>
<path d="M142.357 193.029V172.257V193.029Z" fill="#00CCB3"/>
<path d="M142.357 193.029V172.257" stroke="#00CCB3" stroke-width="0.786561" stroke-dasharray="0.79 1.58"/>
<path d="M442.179 242.393V221.622V242.393Z" fill="#00CCB3"/>
<path d="M442.179 242.393V221.622" stroke="#00CCB3" stroke-width="0.786561" stroke-dasharray="0.79 1.58"/>
</g>
</g>
<defs>
<linearGradient id="paint0_linear_69_29113" x1="358.007" y1="39.3627" x2="132.099" y2="467.218" gradientUnits="userSpaceOnUse">
<stop stop-color="white"/>
<stop offset="1" stop-color="white" stop-opacity="0"/>
</linearGradient>
<linearGradient id="paint1_linear_69_29113" x1="305.311" y1="118.173" x2="267.593" y2="149.422" gradientUnits="userSpaceOnUse">
<stop stop-color="white"/>
<stop offset="1" stop-color="white" stop-opacity="0"/>
</linearGradient>
<linearGradient id="paint2_linear_69_29113" x1="262.615" y1="125.774" x2="146.383" y2="220.827" gradientUnits="userSpaceOnUse">
<stop stop-color="white"/>
<stop offset="1" stop-color="white" stop-opacity="0"/>
</linearGradient>
<linearGradient id="paint3_linear_69_29113" x1="289.277" y1="111.787" x2="274.956" y2="78.6902" gradientUnits="userSpaceOnUse">
<stop stop-color="white"/>
<stop offset="1" stop-color="white" stop-opacity="0"/>
</linearGradient>
<linearGradient id="paint4_linear_69_29113" x1="288.372" y1="58.419" x2="173.812" y2="64.5364" gradientUnits="userSpaceOnUse">
<stop stop-color="white"/>
<stop offset="1" stop-color="white" stop-opacity="0"/>
</linearGradient>
<linearGradient id="paint5_linear_69_29113" x1="289.891" y1="149.934" x2="235.067" y2="261.119" gradientUnits="userSpaceOnUse">
<stop stop-color="white"/>
<stop offset="1" stop-color="white" stop-opacity="0"/>
</linearGradient>
<linearGradient id="paint6_linear_69_29113" x1="332.408" y1="170.724" x2="345.521" y2="267.835" gradientUnits="userSpaceOnUse">
<stop stop-color="white" stop-opacity="0.51"/>
<stop offset="1" stop-color="white" stop-opacity="0"/>
</linearGradient>
<linearGradient id="paint7_linear_69_29113" x1="400.618" y1="235.575" x2="446.587" y2="251.402" gradientUnits="userSpaceOnUse">
<stop stop-color="white"/>
<stop offset="1" stop-color="white" stop-opacity="0"/>
</linearGradient>
<clipPath id="clip0_69_29113">
<rect width="522" height="483.333" fill="white" transform="translate(0.5)"/>
</clipPath>
</defs>
</svg>
