<svg width="187" height="32" viewBox="0 0 187 32" fill="none" xmlns="http://www.w3.org/2000/svg">
<g clip-path="url(#clip0_69_29548)">
<path d="M0.5 23.6001L7.85104 14.5457V32.0001H0.5V23.6001Z" fill="#00CCB3"/>
<path d="M8.86133 7.27197H16.2124V32H8.86133V7.27197Z" fill="#5CD3DD"/>
<path d="M17.2268 0H24.5787V32H17.2268V0Z" fill="#5900F5"/>
<path d="M39.1811 31.9999L34.2812 6.3999H39.0429L42.0108 25.4799H41.3897L44.2533 6.3999H49.0149L44.2193 31.9999H39.1811ZM54.9677 31.9999V11.0079H51.1725V6.3999H63.4218V11.0079H59.6258V31.9999H54.9677ZM72.0239 31.9543C70.0612 31.9543 68.4931 31.3999 67.3197 30.2903C66.1584 29.1815 65.5778 27.7247 65.5778 25.9199V24.6151H70.282V25.9191C70.282 26.4087 70.4332 26.8063 70.7348 27.1111C71.0365 27.4039 71.4667 27.5511 72.0239 27.5511C72.5819 27.5511 73.0113 27.4039 73.3138 27.1111C73.6154 26.8063 73.7666 26.4087 73.7666 25.9191V23.4079C73.77 23.1845 73.7584 22.961 73.7319 22.7391C73.7159 22.5904 73.6482 22.4518 73.5402 22.3471C73.4472 22.2495 73.279 22.1631 73.0348 22.0871C72.7026 21.969 72.3653 21.8654 72.0239 21.7767C70.4097 21.3207 69.1611 20.9343 68.278 20.6191C67.3957 20.2927 66.7625 19.9447 66.3792 19.5751C65.9959 19.2055 65.7638 18.7271 65.6821 18.1399C65.6125 17.5415 65.577 16.7423 65.577 15.7423V12.4799C65.577 10.6639 66.1584 9.2071 67.3197 8.1087C68.4923 6.9999 70.0612 6.4447 72.0239 6.4447C73.9987 6.4447 75.5668 6.9999 76.7281 8.1087C77.8902 9.2071 78.4708 10.6639 78.4708 12.4799V13.7847H73.7666V12.4807C73.7666 11.9903 73.6154 11.5991 73.3138 11.3055C73.0113 11.0015 72.5819 10.8495 72.0239 10.8495C71.4659 10.8495 71.0373 11.0015 70.7348 11.3055C70.4332 11.5991 70.282 11.9911 70.282 12.4799V15.7423C70.282 16.0247 70.2933 16.2479 70.3167 16.4111C70.3318 16.5563 70.3926 16.6932 70.4906 16.8023C70.5957 16.8999 70.7696 16.9927 71.0138 17.0799C71.2572 17.1559 71.5945 17.2535 72.0247 17.3735C73.6389 17.8295 74.8875 18.2215 75.7706 18.5479C76.6529 18.8631 77.2861 19.2055 77.6694 19.5751C78.0527 19.9447 78.2791 20.4287 78.3487 21.0263C78.4296 21.6135 78.4708 22.4079 78.4708 23.4079V25.9199C78.4708 27.7247 77.8902 29.1815 76.7289 30.2911C75.5668 31.3999 73.9987 31.9543 72.0239 31.9543ZM92.8316 6.3999V27.3919H98.1795V31.9999H88.1735V6.3999H92.8316ZM104.994 31.9999H100.336V6.3999H104.994V31.9999ZM107.15 31.9999V6.3999H111.29L116.604 26.2319H115.499L120.813 6.3999H124.954V31.9999H120.641V18.9951L121.193 19.0975L117.536 31.9999H114.568L110.911 19.0975L111.462 18.9951V31.9999H107.15ZM131.77 31.9999H127.111V6.3999H131.77V31.9999ZM137.721 31.9999V11.0079H133.925V6.3999H146.174V11.0079H142.379V31.9999H137.721ZM159.029 6.3999V11.0079H152.991V16.1279H158.097V20.7359H152.991V27.3919H159.029V31.9999H148.333V6.3999H159.029ZM161.183 31.9999V6.3999H167.567C169.522 6.3999 171.075 6.9799 172.225 8.1407C173.375 9.2895 173.95 10.8143 173.95 12.7143V25.6855C173.95 27.5735 173.375 29.0983 172.225 30.2591C171.075 31.4191 169.522 31.9999 167.567 31.9999H161.183ZM165.841 27.3919H167.567C168.119 27.3919 168.545 27.2383 168.843 26.9311C169.143 26.6127 169.292 26.1975 169.292 25.6855V12.7143C169.292 12.2023 169.143 11.7927 168.843 11.4855C168.545 11.1671 168.119 11.0079 167.567 11.0079H165.841V27.3919Z" fill="white"/>
</g>
<defs>
<clipPath id="clip0_69_29548">
<rect width="186" height="32" fill="white" transform="translate(0.5)"/>
</clipPath>
</defs>
</svg>
