<svg width="97" height="40" viewBox="0 0 97 40" fill="none" xmlns="http://www.w3.org/2000/svg">
<path d="M0 29.5L9.09091 18.1819V40.0001H0V29.5Z" fill="#00CCB3"/>
<path d="M10.3408 9.09082H19.4317V39.9999H10.3408V9.09082Z" fill="#5CD3DD"/>
<rect x="20.6819" width="9.09091" height="40" fill="#5900F5"/>
<path d="M47.8314 40L41.7727 8H47.6607L51.33 31.8507H50.562L54.1034 8H59.9914L54.0607 40H47.8314Z" fill="white"/>
<path d="M67.3513 40V13.76H62.658V8H77.8046V13.76H73.1113V40H67.3513Z" fill="white"/>
<path d="M88.4431 39.9434C86.0157 39.9434 84.0766 39.2502 82.6259 37.8638C81.1896 36.4774 80.4714 34.6561 80.4714 32.3998V30.7688H86.2886V32.3998C86.2886 33.0115 86.4753 33.5076 86.8488 33.8881C87.2222 34.2551 87.7537 34.4386 88.4431 34.4386C89.1326 34.4386 89.664 34.2551 90.0375 33.8881C90.4109 33.5076 90.5976 33.0115 90.5976 32.3998V29.2601C90.5976 28.9067 90.5833 28.6281 90.5545 28.4242C90.5258 28.2203 90.4468 28.0572 90.3175 27.9349C90.2026 27.8125 89.9944 27.7038 89.6927 27.6087C89.4055 27.4999 88.9889 27.3708 88.4431 27.2213C86.4466 26.6504 84.9025 26.1679 83.8109 25.7738C82.7193 25.366 81.9365 24.9311 81.4625 24.4689C80.9885 24.0068 80.7012 23.4088 80.6007 22.6748C80.5145 21.9272 80.4714 20.9282 80.4714 19.6778V15.6002C80.4714 13.3303 81.1896 11.509 82.6259 10.1362C84.0766 8.74983 86.0157 8.05664 88.4431 8.05664C90.8849 8.05664 92.8239 8.74983 94.2603 10.1362C95.6966 11.509 96.4148 13.3303 96.4148 15.6002V17.2312H90.5976V15.6002C90.5976 14.9885 90.4109 14.4992 90.0375 14.1322C89.664 13.7517 89.1326 13.5614 88.4431 13.5614C87.7537 13.5614 87.2222 13.7517 86.8488 14.1322C86.4753 14.4992 86.2886 14.9885 86.2886 15.6002V19.6778C86.2886 20.0312 86.303 20.3098 86.3317 20.5137C86.3604 20.7175 86.4322 20.8807 86.5471 21.003C86.6764 21.1253 86.8919 21.2408 87.1935 21.3496C87.4951 21.4447 87.9117 21.567 88.4431 21.7166C90.4396 22.2874 91.9837 22.7767 93.0753 23.1845C94.1669 23.5787 94.9497 24.0068 95.4237 24.4689C95.8977 24.9311 96.1778 25.5359 96.264 26.2835C96.3645 27.0174 96.4148 28.0096 96.4148 29.2601V32.3998C96.4148 34.6561 95.6966 36.4774 94.2603 37.8638C92.8239 39.2502 90.8849 39.9434 88.4431 39.9434Z" fill="white"/>
</svg>
