<svg width="14" height="15" viewBox="0 0 14 15" fill="none" xmlns="http://www.w3.org/2000/svg">
<path d="M7 0.22168C3.136 0.22168 0 3.35768 0 7.22168C0 11.0857 3.136 14.2217 7 14.2217C10.864 14.2217 14 11.0857 14 7.22168C14 3.35768 10.864 0.22168 7 0.22168ZM10.248 4.98168C10.143 6.08768 9.688 8.77568 9.457 10.0147C9.359 10.5397 9.163 10.7147 8.981 10.7357C8.575 10.7707 8.267 10.4697 7.875 10.2107C7.259 9.80468 6.909 9.55268 6.314 9.16068C5.621 8.70568 6.069 8.45368 6.468 8.04768C6.573 7.94268 8.365 6.31168 8.4 6.16468C8.40486 6.14241 8.40421 6.1193 8.39812 6.09734C8.39202 6.07538 8.38065 6.05525 8.365 6.03868C8.323 6.00368 8.267 6.01768 8.218 6.02468C8.155 6.03868 7.175 6.68968 5.264 7.97768C4.984 8.16668 4.732 8.26468 4.508 8.25768C4.256 8.25068 3.78 8.11768 3.423 7.99868C2.982 7.85868 2.639 7.78168 2.667 7.53668C2.681 7.41068 2.856 7.28468 3.185 7.15168C5.229 6.26268 6.587 5.67468 7.266 5.39468C9.212 4.58268 9.611 4.44268 9.877 4.44268C9.933 4.44268 10.066 4.45668 10.15 4.52668C10.22 4.58268 10.241 4.65968 10.248 4.71568C10.241 4.75768 10.255 4.88368 10.248 4.98168Z" fill="#00CCB3"/>
</svg>
