<svg width="14" height="15" viewBox="0 0 14 15" fill="none" xmlns="http://www.w3.org/2000/svg">
<path d="M4.74642 3.66113L10.1224 10.7381H9.28942L3.85742 3.66113H4.74642Z" fill="#00CCB3"/>
<path d="M10.5 0.22168H3.5C2.57174 0.22168 1.6815 0.590429 1.02513 1.24681C0.368749 1.90318 0 2.79342 0 3.72168V10.7217C0 11.6499 0.368749 12.5402 1.02513 13.1966C1.6815 13.8529 2.57174 14.2217 3.5 14.2217H10.5C11.4283 14.2217 12.3185 13.8529 12.9749 13.1966C13.6313 12.5402 14 11.6499 14 10.7217V3.72168C14 2.79342 13.6313 1.90318 12.9749 1.24681C12.3185 0.590429 11.4283 0.22168 10.5 0.22168ZM8.876 11.6317L6.51 8.55168L3.794 11.6317H2.296L5.796 7.63468L2.1 2.81168H5.201L7.343 5.61168L9.8 2.81168H11.298L8.036 6.52168L11.9 11.6317H8.876Z" fill="#00CCB3"/>
</svg>
