<svg width="14" height="15" viewBox="0 0 14 15" fill="none" xmlns="http://www.w3.org/2000/svg">
<path d="M7.00001 0.22168C10.8661 0.22168 14 3.35558 14 7.22167C14 11.0878 10.8661 14.2217 7.00001 14.2217C5.76295 14.2237 4.54767 13.8963 3.47901 13.2732L0.00280985 14.2217L0.949209 10.7441C0.325575 9.67509 -0.00205686 8.45927 9.71617e-06 7.22167C9.71617e-06 3.35558 3.13391 0.22168 7.00001 0.22168ZM4.61441 3.93168L4.47441 3.93728C4.38377 3.9428 4.29519 3.96661 4.21401 4.00728C4.13807 4.05028 4.06875 4.10403 4.00821 4.16688C3.92421 4.24598 3.87661 4.31458 3.82551 4.38108C3.56659 4.71771 3.42719 5.131 3.42931 5.55568C3.43071 5.89868 3.52031 6.23258 3.66031 6.54478C3.94661 7.17617 4.41771 7.84467 5.03931 8.46417C5.18911 8.61327 5.33611 8.76307 5.49431 8.90237C6.26668 9.5824 7.18708 10.0728 8.1823 10.3346L8.5799 10.3955C8.7094 10.4025 8.8389 10.3927 8.9691 10.3864C9.17297 10.3758 9.37203 10.3206 9.5522 10.2247C9.64387 10.1775 9.73333 10.1261 9.8203 10.0707C9.8203 10.0707 9.8504 10.0511 9.9078 10.0077C10.0023 9.93767 10.0604 9.88797 10.1388 9.80607C10.1969 9.74587 10.2473 9.67517 10.2858 9.59467C10.3404 9.48057 10.395 9.26287 10.4174 9.08157C10.4342 8.94297 10.4293 8.86737 10.4272 8.82047C10.4244 8.74557 10.3621 8.66787 10.2942 8.63497L9.8868 8.45227C9.8868 8.45227 9.2778 8.18697 8.9054 8.01757C8.86644 8.00056 8.82468 7.99083 8.7822 7.98887C8.73431 7.98396 8.68592 7.98934 8.64028 8.00468C8.59464 8.02001 8.55281 8.04493 8.5176 8.07777C8.5141 8.07637 8.4672 8.11627 7.9611 8.72947C7.93206 8.76851 7.89204 8.79801 7.84617 8.81421C7.80029 8.83042 7.75062 8.8326 7.7035 8.82047C7.6579 8.80825 7.61323 8.79281 7.5698 8.77427C7.483 8.73787 7.4529 8.72387 7.3934 8.69867C6.99165 8.52336 6.61969 8.28648 6.29091 7.99657C6.20271 7.91957 6.12081 7.83557 6.03681 7.75437C5.76142 7.49064 5.52141 7.19228 5.32281 6.86678L5.28151 6.80027C5.25184 6.75559 5.22786 6.70739 5.21011 6.65677C5.18351 6.55387 5.25281 6.47128 5.25281 6.47128C5.25281 6.47128 5.42291 6.28508 5.50201 6.18428C5.57901 6.08628 5.64411 5.99108 5.68611 5.92318C5.76871 5.79018 5.79461 5.65368 5.75121 5.54798C5.55521 5.06918 5.35221 4.59248 5.14361 4.11928C5.10231 4.02548 4.97981 3.95828 4.86851 3.94498C4.83071 3.94078 4.79291 3.93658 4.75511 3.93378C4.6611 3.92911 4.5669 3.93004 4.47301 3.93658L4.61441 3.93168Z" fill="#00CCB3"/>
</svg>
