<svg width="14" height="12" viewBox="0 0 14 12" fill="none" xmlns="http://www.w3.org/2000/svg">
<path d="M13.91 3.28947C13.91 2.05885 13.0049 1.06888 11.8864 1.06888C10.3713 0.99805 8.8262 0.970703 7.24717 0.970703H6.75492C5.17973 0.970703 3.63187 0.99805 2.11684 1.06915C1.00107 1.06915 0.0958815 2.06459 0.0958815 3.29521C0.0275135 4.2685 -0.00147453 5.24206 0.000166301 6.21562C-0.00256842 7.18918 0.0284251 8.16365 0.0931468 9.13903C0.0931468 10.3697 0.998339 11.3678 2.1141 11.3678C3.70571 11.4417 5.33834 11.4745 6.99831 11.4717C8.66102 11.4772 10.2891 11.4426 11.8825 11.3678C13.001 11.3678 13.9062 10.3697 13.9062 9.13903C13.9719 8.16274 14.0019 7.18918 13.9992 6.21288C14.0054 5.23933 13.9757 4.26485 13.91 3.28947ZM5.66104 8.89838V3.52466L9.62638 6.21015L5.66104 8.89838Z" fill="#00CCB3"/>
</svg>
